<svg viewBox="0 0 24 24" xmlns="http://www.w3.org/2000/svg">
    <g>
        <path d="m15.2166 7.54935c.1732.08326.2834.25845.2834.45065v8c0 .1922-.1102.3674-.2834.4507-.1732.0832-.3789.0598-.5289-.0603l-5.00005-4c-.1186-.0948-.18765-.2385-.18765-.3904s.06905-.2955.18765-.3904l5.00005-4.00003c.15-.12007.3557-.14348.5289-.06022zm-4.4162 4.45065 3.6996 2.9597v-5.91938z" fill-rule="evenodd"/>
        <path d="m8.5 8c0-.27614-.22386-.5-.5-.5s-.5.22386-.5.5v8c0 .2761.22386.5.5.5s.5-.2239.5-.5z"/>
        <path clip-rule="evenodd" d="m1.5 12c0-5.79899 4.70101-10.5 10.5-10.5 5.799 0 10.5 4.70101 10.5 10.5 0 5.799-4.701 10.5-10.5 10.5-5.79899 0-10.5-4.701-10.5-10.5zm10.5-9.5c-5.24671 0-9.5 4.25329-9.5 9.5 0 5.2467 4.25329 9.5 9.5 9.5 5.2467 0 9.5-4.2533 9.5-9.5 0-5.24671-4.2533-9.5-9.5-9.5z" fill-rule="evenodd"/>
    </g>
</svg>