<svg viewBox="0 0 24 24" xmlns="http://www.w3.org/2000/svg">
    <g>
        <path d="m16.4511 5.78427c.1191.24912.0137.54765-.2354.6668l-1.5367.73497c2.2065.67942 3.821 2.66237 3.821 5.03136 0 2.9382-2.4836 5.2826-5.5 5.2826-.2761 0-.5-.2239-.5-.5s.2239-.5.5-.5c2.5065 0 4.5-1.9381 4.5-4.2826 0-2.0667-1.5491-3.81763-3.6331-4.20354l1.0762 2.05884c.1279.2447.0333.5468-.2115.6748-.2447.1279-.5468.0332-.6747-.2115l-1.5-2.86959c-.0629-.12025-.0742-.26089-.0313-.38963s.1363-.23452.2587-.29306l3-1.43479c.2491-.11914.5476-.01378.6668.23534z"/>
        <path d="m7.78427 17.5489c-.24911.1192-.35448.4177-.23534.6668.11915.2491.41768.3545.6668.2354l2.99997-1.4348c.1224-.0586.2158-.1643.2587-.2931.0429-.1287.0316-.2694-.0313-.3896l-1.49999-2.8696c-.12792-.2447-.43001-.3394-.67474-.2115-.24472.128-.33941.4301-.21148.6748l1.07621 2.0588c-2.08399-.3859-3.6331-2.1368-3.6331-4.2035 0-2.3445 1.99354-4.2826 4.5-4.2826.2761 0 .5-.22386.5-.5s-.2239-.5-.5-.5c-3.01639 0-5.5 2.34439-5.5 5.2826 0 2.369 1.6145 4.3519 3.82102 5.0314z"/>
        <path d="m1.5 12c0-5.79899 4.70101-10.5 10.5-10.5 5.799 0 10.5 4.70101 10.5 10.5 0 5.799-4.701 10.5-10.5 10.5-5.79899 0-10.5-4.701-10.5-10.5zm10.5-9.5c-5.24671 0-9.5 4.25329-9.5 9.5 0 5.2467 4.25329 9.5 9.5 9.5 5.2467 0 9.5-4.2533 9.5-9.5 0-5.24671-4.2533-9.5-9.5-9.5z" />
    </g>
</svg>